<svg width="98" height="98" viewBox="0 0 98 98" fill="none" xmlns="http://www.w3.org/2000/svg">
<line x1="-2.62268e-07" y1="3" x2="26" y2="3" stroke="black" stroke-width="6"/>
<line x1="23" y1="93" x2="23" y2="2" stroke="black" stroke-width="6"/>
<line x1="26" y1="95" x2="-1.59331e-07" y2="95" stroke="black" stroke-width="6"/>
<line x1="97.0187" y1="95" x2="71.0187" y2="95" stroke="black" stroke-width="6"/>
<line x1="74.0187" y1="1" x2="74.0187" y2="92" stroke="black" stroke-width="6"/>
<line x1="71.0187" y1="3" x2="97.0187" y2="3" stroke="black" stroke-width="6"/>
<path d="M68.7071 47.7071C69.0976 47.3166 69.0976 46.6834 68.7071 46.2929L62.3431 39.9289C61.9526 39.5384 61.3195 39.5384 60.9289 39.9289C60.5384 40.3195 60.5384 40.9526 60.9289 41.3431L66.5858 47L60.9289 52.6569C60.5384 53.0474 60.5384 53.6805 60.9289 54.0711C61.3195 54.4616 61.9526 54.4616 62.3431 54.0711L68.7071 47.7071ZM36.5 47V48H68V47V46H36.5V47Z" fill="black"/>
<path d="M28.2929 46.3078C27.9024 46.6983 27.9024 47.3315 28.2929 47.722L34.6569 54.086C35.0474 54.4765 35.6805 54.4765 36.0711 54.086C36.4616 53.6954 36.4616 53.0623 36.0711 52.6717L30.4142 47.0149L36.0711 41.358C36.4616 40.9675 36.4616 40.3344 36.0711 39.9438C35.6805 39.5533 35.0474 39.5533 34.6569 39.9438L28.2929 46.3078ZM68 47.0149L68 46.0149L29 46.0149L29 47.0149L29 48.0149L68 48.0149L68 47.0149Z" fill="black"/>
</svg>
